<?xml version="1.0" encoding="UTF-8" standalone="no"?>
<!DOCTYPE svg PUBLIC "-//W3C//DTD SVG 1.1//EN"
 "http://www.w3.org/Graphics/SVG/1.1/DTD/svg11.dtd">
<!-- Generated by graphviz version 2.40.1 (20161225.0304)
 -->
<!-- Title: dependencies Pages: 1 -->
<svg width="1222pt" height="366pt"
 viewBox="0.00 0.00 1222.00 366.00" xmlns="http://www.w3.org/2000/svg" xmlns:xlink="http://www.w3.org/1999/xlink">
<g id="graph0" class="graph" transform="scale(1 1) rotate(0) translate(4 362)">
<title>dependencies</title>
<polygon fill="#ffffff" stroke="transparent" points="-4,4 -4,-362 1218,-362 1218,4 -4,4"/>
<text text-anchor="start" x="586.0091" y="-42.4" font-family="sans-serif" font-weight="bold" font-size="14.00" fill="#000000">Legend</text>
<polygon fill="#ffffb3" stroke="transparent" points="373,-10 373,-30 393,-30 393,-10 373,-10"/>
<text text-anchor="start" x="396.629" y="-15.4" font-family="sans-serif" font-size="14.00" fill="#000000"> &#160;Declarations</text>
<polygon fill="#8dd3c7" stroke="transparent" points="486,-10 486,-30 506,-30 506,-10 486,-10"/>
<text text-anchor="start" x="509.7251" y="-15.4" font-family="sans-serif" font-size="14.00" fill="#000000"> &#160;Module</text>
<polygon fill="#80b1d3" stroke="transparent" points="572,-10 572,-30 592,-30 592,-10 572,-10"/>
<text text-anchor="start" x="595.7812" y="-15.4" font-family="sans-serif" font-size="14.00" fill="#000000"> &#160;Bootstrap</text>
<polygon fill="#fdb462" stroke="transparent" points="669,-10 669,-30 689,-30 689,-10 669,-10"/>
<text text-anchor="start" x="692.6732" y="-15.4" font-family="sans-serif" font-size="14.00" fill="#000000"> &#160;Providers</text>
<polygon fill="#fb8072" stroke="transparent" points="765,-10 765,-30 785,-30 785,-10 765,-10"/>
<text text-anchor="start" x="788.7258" y="-15.4" font-family="sans-serif" font-size="14.00" fill="#000000"> &#160;Exports</text>
<g id="clust1" class="cluster">
<title>cluster_AppModule</title>
<polygon fill="none" stroke="#000000" stroke-dasharray="1,5" points="8,-146 8,-350 886,-350 886,-146 8,-146"/>
</g>
<g id="clust2" class="cluster">
<title>cluster_AppModule_declarations</title>
<polygon fill="none" stroke="#000000" points="16,-154 16,-206 289,-206 289,-154 16,-154"/>
</g>
<g id="clust5" class="cluster">
<title>cluster_AppModule_imports</title>
<polygon fill="none" stroke="#000000" points="297,-154 297,-206 878,-206 878,-154 297,-154"/>
</g>
<g id="clust7" class="cluster">
<title>cluster_AppModule_bootstrap</title>
<polygon fill="none" stroke="#000000" points="397,-290 397,-342 521,-342 521,-290 397,-290"/>
</g>
<g id="clust21" class="cluster">
<title>cluster_RecaptchaLoaderModule</title>
<polygon fill="none" stroke="#000000" stroke-dasharray="1,5" points="260,-70 260,-138 508,-138 508,-70 260,-70"/>
</g>
<g id="clust26" class="cluster">
<title>cluster_RecaptchaLoaderModule_providers</title>
<polygon fill="none" stroke="#000000" points="268,-78 268,-130 500,-130 500,-78 268,-78"/>
</g>
<g id="clust27" class="cluster">
<title>cluster_RecaptchaModule</title>
<polygon fill="none" stroke="#000000" stroke-dasharray="1,5" points="894,-214 894,-282 1206,-282 1206,-214 894,-214"/>
</g>
<g id="clust28" class="cluster">
<title>cluster_RecaptchaModule_declarations</title>
<polygon fill="none" stroke="#000000" points="1056,-222 1056,-274 1198,-274 1198,-222 1056,-222"/>
</g>
<g id="clust31" class="cluster">
<title>cluster_RecaptchaModule_exports</title>
<polygon fill="none" stroke="#000000" points="902,-222 902,-274 1048,-274 1048,-222 902,-222"/>
</g>
<!-- AppComponent -->
<g id="node1" class="node">
<title>AppComponent</title>
<polygon fill="#ffffb3" stroke="#000000" points="280.9399,-198 175.0601,-198 175.0601,-162 280.9399,-162 280.9399,-198"/>
<text text-anchor="middle" x="228" y="-175.8" font-family="Times,serif" font-size="14.00" fill="#000000">AppComponent</text>
</g>
<!-- AppModule -->
<g id="node3" class="node">
<title>AppModule</title>
<polygon fill="#8dd3c7" stroke="#000000" points="500.6571,-266 497.6571,-270 476.6571,-270 473.6571,-266 417.3429,-266 417.3429,-230 500.6571,-230 500.6571,-266"/>
<text text-anchor="middle" x="459" y="-243.8" font-family="Times,serif" font-size="14.00" fill="#000000">AppModule</text>
</g>
<!-- AppComponent&#45;&gt;AppModule -->
<g id="edge1" class="edge">
<title>AppComponent&#45;&gt;AppModule</title>
<path fill="none" stroke="#000000" d="M228,-198.2667C228,-216.5552 228,-242 228,-242 228,-242 407.1676,-242 407.1676,-242"/>
<polygon fill="#000000" stroke="#000000" points="407.1677,-245.5001 417.1676,-242 407.1676,-238.5001 407.1677,-245.5001"/>
</g>
<!-- DirectiveComponent -->
<g id="node2" class="node">
<title>DirectiveComponent</title>
<polygon fill="#ffffb3" stroke="#000000" points="157.9158,-198 24.0842,-198 24.0842,-162 157.9158,-162 157.9158,-198"/>
<text text-anchor="middle" x="91" y="-175.8" font-family="Times,serif" font-size="14.00" fill="#000000">DirectiveComponent</text>
</g>
<!-- DirectiveComponent&#45;&gt;AppModule -->
<g id="edge2" class="edge">
<title>DirectiveComponent&#45;&gt;AppModule</title>
<path fill="none" stroke="#000000" d="M91,-198.2921C91,-220.2057 91,-254 91,-254 91,-254 407.144,-254 407.144,-254"/>
<polygon fill="#000000" stroke="#000000" points="407.144,-257.5001 417.144,-254 407.144,-250.5001 407.144,-257.5001"/>
</g>
<!-- AppComponent  -->
<g id="node8" class="node">
<title>AppComponent </title>
<polygon fill="#80b1d3" stroke="#000000" points="513.439,-334 404.561,-334 404.561,-298 513.439,-298 513.439,-334"/>
<text text-anchor="middle" x="459" y="-311.8" font-family="Times,serif" font-size="14.00" fill="#000000">AppComponent </text>
</g>
<!-- AppModule&#45;&gt;AppComponent  -->
<g id="edge7" class="edge">
<title>AppModule&#45;&gt;AppComponent </title>
<path fill="none" stroke="#000000" stroke-dasharray="1,5" d="M459,-266.2228C459,-266.2228 459,-287.7269 459,-287.7269"/>
<polygon fill="#000000" stroke="#000000" points="455.5001,-287.7269 459,-297.7269 462.5001,-287.727 455.5001,-287.7269"/>
</g>
<!-- AppRoutingModule -->
<g id="node4" class="node">
<title>AppRoutingModule</title>
<polygon fill="#8dd3c7" stroke="#000000" points="734.2744,-198 731.2744,-202 710.2744,-202 707.2744,-198 605.7256,-198 605.7256,-162 734.2744,-162 734.2744,-198"/>
<text text-anchor="middle" x="670" y="-175.8" font-family="Times,serif" font-size="14.00" fill="#000000">AppRoutingModule</text>
</g>
<!-- AppRoutingModule&#45;&gt;AppModule -->
<g id="edge3" class="edge">
<title>AppRoutingModule&#45;&gt;AppModule</title>
<path fill="none" stroke="#000000" d="M670,-198.0225C670,-215.3734 670,-239 670,-239 670,-239 510.6868,-239 510.6868,-239"/>
<polygon fill="#000000" stroke="#000000" points="510.6868,-235.5001 500.6868,-239 510.6868,-242.5001 510.6868,-235.5001"/>
</g>
<!-- MaterialModule -->
<g id="node5" class="node">
<title>MaterialModule</title>
<polygon fill="#8dd3c7" stroke="#000000" points="587.4706,-198 584.4706,-202 563.4706,-202 560.4706,-198 480.5294,-198 480.5294,-162 587.4706,-162 587.4706,-198"/>
<text text-anchor="middle" x="534" y="-175.8" font-family="Times,serif" font-size="14.00" fill="#000000">MaterialModule</text>
</g>
<!-- MaterialModule&#45;&gt;AppModule -->
<g id="edge4" class="edge">
<title>MaterialModule&#45;&gt;AppModule</title>
<path fill="none" stroke="#000000" d="M490.6715,-198.2228C490.6715,-198.2228 490.6715,-219.7269 490.6715,-219.7269"/>
<polygon fill="#000000" stroke="#000000" points="487.1715,-219.7269 490.6715,-229.7269 494.1715,-219.727 487.1715,-219.7269"/>
</g>
<!-- RecaptchaLoaderModule -->
<g id="node6" class="node">
<title>RecaptchaLoaderModule</title>
<polygon fill="#8dd3c7" stroke="#000000" points="462.9932,-198 459.9932,-202 438.9932,-202 435.9932,-198 305.0068,-198 305.0068,-162 462.9932,-162 462.9932,-198"/>
<text text-anchor="middle" x="384" y="-175.8" font-family="Times,serif" font-size="14.00" fill="#000000">RecaptchaLoaderModule</text>
</g>
<!-- RecaptchaLoaderModule&#45;&gt;AppModule -->
<g id="edge5" class="edge">
<title>RecaptchaLoaderModule&#45;&gt;AppModule</title>
<path fill="none" stroke="#000000" d="M439.959,-198.2228C439.959,-198.2228 439.959,-219.7269 439.959,-219.7269"/>
<polygon fill="#000000" stroke="#000000" points="436.4591,-219.7269 439.959,-229.7269 443.4591,-219.727 436.4591,-219.7269"/>
</g>
<!-- RecaptchaModule -->
<g id="node7" class="node">
<title>RecaptchaModule</title>
<polygon fill="#8dd3c7" stroke="#000000" points="869.8501,-198 866.8501,-202 845.8501,-202 842.8501,-198 752.1499,-198 752.1499,-162 869.8501,-162 869.8501,-198"/>
<text text-anchor="middle" x="811" y="-175.8" font-family="Times,serif" font-size="14.00" fill="#000000">RecaptchaModule</text>
</g>
<!-- RecaptchaModule&#45;&gt;AppModule -->
<g id="edge6" class="edge">
<title>RecaptchaModule&#45;&gt;AppModule</title>
<path fill="none" stroke="#000000" d="M791.3583,-198.2228C791.3583,-218.3652 791.3583,-248 791.3583,-248 791.3583,-248 510.7569,-248 510.7569,-248"/>
<polygon fill="#000000" stroke="#000000" points="510.7569,-244.5001 500.7569,-248 510.7568,-251.5001 510.7569,-244.5001"/>
</g>
<!-- RecaptchaDirective  -->
<g id="node11" class="node">
<title>RecaptchaDirective </title>
<polygon fill="#fb8072" stroke="#000000" points="1039.8831,-266 910.1169,-266 910.1169,-230 1039.8831,-230 1039.8831,-266"/>
<text text-anchor="middle" x="975" y="-243.8" font-family="Times,serif" font-size="14.00" fill="#000000">RecaptchaDirective </text>
</g>
<!-- RecaptchaModule&#45;&gt;RecaptchaDirective  -->
<g id="edge10" class="edge">
<title>RecaptchaModule&#45;&gt;RecaptchaDirective </title>
<path fill="none" stroke="#000000" stroke-dasharray="5,2" d="M830.6417,-198.2479C830.6417,-221.0179 830.6417,-257 830.6417,-257 830.6417,-257 900,-257 900,-257"/>
<polygon fill="#000000" stroke="#000000" points="900,-260.5001 910,-257 900,-253.5001 900,-260.5001"/>
</g>
<!-- RecaptchaLoaderService -->
<g id="node9" class="node">
<title>RecaptchaLoaderService</title>
<ellipse fill="#fdb462" stroke="#000000" cx="384" cy="-104" rx="107.6018" ry="18"/>
<text text-anchor="middle" x="384" y="-99.8" font-family="Times,serif" font-size="14.00" fill="#000000">RecaptchaLoaderService</text>
</g>
<!-- RecaptchaLoaderService&#45;&gt;RecaptchaLoaderModule -->
<g id="edge8" class="edge">
<title>RecaptchaLoaderService&#45;&gt;RecaptchaLoaderModule</title>
<path fill="none" stroke="#000000" d="M384,-122.0109C384,-122.0109 384,-151.855 384,-151.855"/>
<polygon fill="#000000" stroke="#000000" points="380.5001,-151.8549 384,-161.855 387.5001,-151.855 380.5001,-151.8549"/>
</g>
<!-- RecaptchaDirective -->
<g id="node10" class="node">
<title>RecaptchaDirective</title>
<polygon fill="#ffffb3" stroke="#000000" points="1190.3836,-266 1063.6164,-266 1063.6164,-230 1190.3836,-230 1190.3836,-266"/>
<text text-anchor="middle" x="1127" y="-243.8" font-family="Times,serif" font-size="14.00" fill="#000000">RecaptchaDirective</text>
</g>
<!-- RecaptchaDirective&#45;&gt;RecaptchaModule -->
<g id="edge9" class="edge">
<title>RecaptchaDirective&#45;&gt;RecaptchaModule</title>
<path fill="none" stroke="#000000" d="M1127,-229.7772C1127,-209.6348 1127,-180 1127,-180 1127,-180 880.0665,-180 880.0665,-180"/>
<polygon fill="#000000" stroke="#000000" points="880.0665,-176.5001 870.0665,-180 880.0665,-183.5001 880.0665,-176.5001"/>
</g>
</g>
</svg>
