<?xml version="1.0" encoding="UTF-8" standalone="no"?>
<!DOCTYPE svg PUBLIC "-//W3C//DTD SVG 1.1//EN"
 "http://www.w3.org/Graphics/SVG/1.1/DTD/svg11.dtd">
<!-- Generated by graphviz version 2.40.1 (20161225.0304)
 -->
<!-- Title: dependencies Pages: 1 -->
<svg width="504pt" height="284pt"
 viewBox="0.00 0.00 504.00 284.00" xmlns="http://www.w3.org/2000/svg" xmlns:xlink="http://www.w3.org/1999/xlink">
<g id="graph0" class="graph" transform="scale(1 1) rotate(0) translate(4 280)">
<title>dependencies</title>
<polygon fill="#ffffff" stroke="transparent" points="-4,4 -4,-280 500,-280 500,4 -4,4"/>
<text text-anchor="start" x="227.0091" y="-42.4" font-family="sans-serif" font-weight="bold" font-size="14.00" fill="#000000">Legend</text>
<polygon fill="#ffffb3" stroke="transparent" points="14,-10 14,-30 34,-30 34,-10 14,-10"/>
<text text-anchor="start" x="37.629" y="-15.4" font-family="sans-serif" font-size="14.00" fill="#000000"> &#160;Declarations</text>
<polygon fill="#8dd3c7" stroke="transparent" points="127,-10 127,-30 147,-30 147,-10 127,-10"/>
<text text-anchor="start" x="150.7251" y="-15.4" font-family="sans-serif" font-size="14.00" fill="#000000"> &#160;Module</text>
<polygon fill="#80b1d3" stroke="transparent" points="213,-10 213,-30 233,-30 233,-10 213,-10"/>
<text text-anchor="start" x="236.7812" y="-15.4" font-family="sans-serif" font-size="14.00" fill="#000000"> &#160;Bootstrap</text>
<polygon fill="#fdb462" stroke="transparent" points="310,-10 310,-30 330,-30 330,-10 310,-10"/>
<text text-anchor="start" x="333.6732" y="-15.4" font-family="sans-serif" font-size="14.00" fill="#000000"> &#160;Providers</text>
<polygon fill="#fb8072" stroke="transparent" points="406,-10 406,-30 426,-30 426,-10 406,-10"/>
<text text-anchor="start" x="429.7258" y="-15.4" font-family="sans-serif" font-size="14.00" fill="#000000"> &#160;Exports</text>
<g id="clust1" class="cluster">
<title>cluster_RecaptchaLoaderModule</title>
<polygon fill="none" stroke="#000000" stroke-dasharray="1,5" points="39,-70 39,-195 287,-195 287,-70 39,-70"/>
</g>
<g id="clust6" class="cluster">
<title>cluster_RecaptchaLoaderModule_providers</title>
<polygon fill="none" stroke="#000000" points="47,-78 47,-130 279,-130 279,-78 47,-78"/>
</g>
<g id="clust7" class="cluster">
<title>cluster_RecaptchaModule</title>
<polygon fill="none" stroke="#000000" stroke-dasharray="1,5" points="295,-70 295,-268 457,-268 457,-70 295,-70"/>
</g>
<g id="clust8" class="cluster">
<title>cluster_RecaptchaModule_declarations</title>
<polygon fill="none" stroke="#000000" points="305,-78 305,-130 447,-130 447,-78 305,-78"/>
</g>
<g id="clust11" class="cluster">
<title>cluster_RecaptchaModule_exports</title>
<polygon fill="none" stroke="#000000" points="303,-208 303,-260 449,-260 449,-208 303,-208"/>
</g>
<!-- RecaptchaLoaderService -->
<g id="node1" class="node">
<title>RecaptchaLoaderService</title>
<ellipse fill="#fdb462" stroke="#000000" cx="163" cy="-104" rx="107.6018" ry="18"/>
<text text-anchor="middle" x="163" y="-99.8" font-family="Times,serif" font-size="14.00" fill="#000000">RecaptchaLoaderService</text>
</g>
<!-- RecaptchaLoaderModule -->
<g id="node2" class="node">
<title>RecaptchaLoaderModule</title>
<polygon fill="#8dd3c7" stroke="#000000" points="241.9932,-187 238.9932,-191 217.9932,-191 214.9932,-187 84.0068,-187 84.0068,-151 241.9932,-151 241.9932,-187"/>
<text text-anchor="middle" x="163" y="-164.8" font-family="Times,serif" font-size="14.00" fill="#000000">RecaptchaLoaderModule</text>
</g>
<!-- RecaptchaLoaderService&#45;&gt;RecaptchaLoaderModule -->
<g id="edge1" class="edge">
<title>RecaptchaLoaderService&#45;&gt;RecaptchaLoaderModule</title>
<path fill="none" stroke="#000000" d="M163,-122.1061C163,-122.1061 163,-140.991 163,-140.991"/>
<polygon fill="#000000" stroke="#000000" points="159.5001,-140.9909 163,-150.991 166.5001,-140.991 159.5001,-140.9909"/>
</g>
<!-- RecaptchaDirective -->
<g id="node3" class="node">
<title>RecaptchaDirective</title>
<polygon fill="#ffffb3" stroke="#000000" points="439.3836,-122 312.6164,-122 312.6164,-86 439.3836,-86 439.3836,-122"/>
<text text-anchor="middle" x="376" y="-99.8" font-family="Times,serif" font-size="14.00" fill="#000000">RecaptchaDirective</text>
</g>
<!-- RecaptchaModule -->
<g id="node4" class="node">
<title>RecaptchaModule</title>
<polygon fill="#8dd3c7" stroke="#000000" points="434.8501,-187 431.8501,-191 410.8501,-191 407.8501,-187 317.1499,-187 317.1499,-151 434.8501,-151 434.8501,-187"/>
<text text-anchor="middle" x="376" y="-164.8" font-family="Times,serif" font-size="14.00" fill="#000000">RecaptchaModule</text>
</g>
<!-- RecaptchaDirective&#45;&gt;RecaptchaModule -->
<g id="edge2" class="edge">
<title>RecaptchaDirective&#45;&gt;RecaptchaModule</title>
<path fill="none" stroke="#000000" d="M376,-122.1061C376,-122.1061 376,-140.991 376,-140.991"/>
<polygon fill="#000000" stroke="#000000" points="372.5001,-140.9909 376,-150.991 379.5001,-140.991 372.5001,-140.9909"/>
</g>
<!-- RecaptchaDirective  -->
<g id="node5" class="node">
<title>RecaptchaDirective </title>
<polygon fill="#fb8072" stroke="#000000" points="440.8831,-252 311.1169,-252 311.1169,-216 440.8831,-216 440.8831,-252"/>
<text text-anchor="middle" x="376" y="-229.8" font-family="Times,serif" font-size="14.00" fill="#000000">RecaptchaDirective </text>
</g>
<!-- RecaptchaModule&#45;&gt;RecaptchaDirective  -->
<g id="edge3" class="edge">
<title>RecaptchaModule&#45;&gt;RecaptchaDirective </title>
<path fill="none" stroke="#000000" stroke-dasharray="5,2" d="M376,-187.1061C376,-187.1061 376,-205.991 376,-205.991"/>
<polygon fill="#000000" stroke="#000000" points="372.5001,-205.9909 376,-215.991 379.5001,-205.991 372.5001,-205.9909"/>
</g>
</g>
</svg>
