<?xml version="1.0" encoding="UTF-8" standalone="no"?>
<!DOCTYPE svg PUBLIC "-//W3C//DTD SVG 1.1//EN"
 "http://www.w3.org/Graphics/SVG/1.1/DTD/svg11.dtd">
<!-- Generated by graphviz version 2.40.1 (20161225.0304)
 -->
<!-- Title: dependencies Pages: 1 -->
<svg width="1746pt" height="290pt"
 viewBox="0.00 0.00 1746.00 290.00" xmlns="http://www.w3.org/2000/svg" xmlns:xlink="http://www.w3.org/1999/xlink">
<g id="graph0" class="graph" transform="scale(1 1) rotate(0) translate(4 286)">
<title>dependencies</title>
<polygon fill="#ffffff" stroke="transparent" points="-4,4 -4,-286 1742,-286 1742,4 -4,4"/>
<text text-anchor="start" x="848.0091" y="-42.4" font-family="sans-serif" font-weight="bold" font-size="14.00" fill="#000000">Legend</text>
<polygon fill="#ffffb3" stroke="transparent" points="635,-10 635,-30 655,-30 655,-10 635,-10"/>
<text text-anchor="start" x="658.629" y="-15.4" font-family="sans-serif" font-size="14.00" fill="#000000"> &#160;Declarations</text>
<polygon fill="#8dd3c7" stroke="transparent" points="748,-10 748,-30 768,-30 768,-10 748,-10"/>
<text text-anchor="start" x="771.7251" y="-15.4" font-family="sans-serif" font-size="14.00" fill="#000000"> &#160;Module</text>
<polygon fill="#80b1d3" stroke="transparent" points="834,-10 834,-30 854,-30 854,-10 834,-10"/>
<text text-anchor="start" x="857.7812" y="-15.4" font-family="sans-serif" font-size="14.00" fill="#000000"> &#160;Bootstrap</text>
<polygon fill="#fdb462" stroke="transparent" points="931,-10 931,-30 951,-30 951,-10 931,-10"/>
<text text-anchor="start" x="954.6732" y="-15.4" font-family="sans-serif" font-size="14.00" fill="#000000"> &#160;Providers</text>
<polygon fill="#fb8072" stroke="transparent" points="1027,-10 1027,-30 1047,-30 1047,-10 1027,-10"/>
<text text-anchor="start" x="1050.7258" y="-15.4" font-family="sans-serif" font-size="14.00" fill="#000000"> &#160;Exports</text>
<g id="clust1" class="cluster">
<title>cluster_AppModule</title>
<polygon fill="none" stroke="#000000" stroke-dasharray="1,5" points="8,-70 8,-274 1410,-274 1410,-70 8,-70"/>
</g>
<g id="clust2" class="cluster">
<title>cluster_AppModule_declarations</title>
<polygon fill="none" stroke="#000000" points="16,-78 16,-130 589,-130 589,-78 16,-78"/>
</g>
<g id="clust7" class="cluster">
<title>cluster_AppModule_imports</title>
<polygon fill="none" stroke="#000000" points="597,-78 597,-130 1402,-130 1402,-78 597,-78"/>
</g>
<g id="clust9" class="cluster">
<title>cluster_AppModule_bootstrap</title>
<polygon fill="none" stroke="#000000" points="596,-214 596,-266 720,-266 720,-214 596,-214"/>
</g>
<g id="clust23" class="cluster">
<title>cluster_RecaptchaDirectiveModule</title>
<polygon fill="none" stroke="#000000" stroke-dasharray="1,5" points="1418,-138 1418,-206 1730,-206 1730,-138 1418,-138"/>
</g>
<g id="clust24" class="cluster">
<title>cluster_RecaptchaDirectiveModule_declarations</title>
<polygon fill="none" stroke="#000000" points="1580,-146 1580,-198 1722,-198 1722,-146 1580,-146"/>
</g>
<g id="clust27" class="cluster">
<title>cluster_RecaptchaDirectiveModule_exports</title>
<polygon fill="none" stroke="#000000" points="1426,-146 1426,-198 1572,-198 1572,-146 1426,-146"/>
</g>
<!-- AppComponent -->
<g id="node1" class="node">
<title>AppComponent</title>
<polygon fill="#ffffb3" stroke="#000000" points="280.9399,-122 175.0601,-122 175.0601,-86 280.9399,-86 280.9399,-122"/>
<text text-anchor="middle" x="228" y="-99.8" font-family="Times,serif" font-size="14.00" fill="#000000">AppComponent</text>
</g>
<!-- AppModule -->
<g id="node5" class="node">
<title>AppModule</title>
<polygon fill="#8dd3c7" stroke="#000000" points="699.6571,-190 696.6571,-194 675.6571,-194 672.6571,-190 616.3429,-190 616.3429,-154 699.6571,-154 699.6571,-190"/>
<text text-anchor="middle" x="658" y="-167.8" font-family="Times,serif" font-size="14.00" fill="#000000">AppModule</text>
</g>
<!-- AppComponent&#45;&gt;AppModule -->
<g id="edge1" class="edge">
<title>AppComponent&#45;&gt;AppModule</title>
<path fill="none" stroke="#000000" d="M228,-122.1686C228,-143.498 228,-176 228,-176 228,-176 605.9869,-176 605.9869,-176"/>
<polygon fill="#000000" stroke="#000000" points="605.9869,-179.5001 615.9869,-176 605.9868,-172.5001 605.9869,-179.5001"/>
</g>
<!-- DirectiveComponent -->
<g id="node2" class="node">
<title>DirectiveComponent</title>
<polygon fill="#ffffb3" stroke="#000000" points="157.9158,-122 24.0842,-122 24.0842,-86 157.9158,-86 157.9158,-122"/>
<text text-anchor="middle" x="91" y="-99.8" font-family="Times,serif" font-size="14.00" fill="#000000">DirectiveComponent</text>
</g>
<!-- DirectiveComponent&#45;&gt;AppModule -->
<g id="edge2" class="edge">
<title>DirectiveComponent&#45;&gt;AppModule</title>
<path fill="none" stroke="#000000" d="M91,-122.3228C91,-145.6602 91,-183 91,-183 91,-183 606.3071,-183 606.3071,-183"/>
<polygon fill="#000000" stroke="#000000" points="606.3072,-186.5001 616.3071,-183 606.3071,-179.5001 606.3072,-186.5001"/>
</g>
<!-- ReactiveComponent -->
<g id="node3" class="node">
<title>ReactiveComponent</title>
<polygon fill="#ffffb3" stroke="#000000" points="581.309,-122 450.691,-122 450.691,-86 581.309,-86 581.309,-122"/>
<text text-anchor="middle" x="516" y="-99.8" font-family="Times,serif" font-size="14.00" fill="#000000">ReactiveComponent</text>
</g>
<!-- ReactiveComponent&#45;&gt;AppModule -->
<g id="edge3" class="edge">
<title>ReactiveComponent&#45;&gt;AppModule</title>
<path fill="none" stroke="#000000" d="M516,-122.0336C516,-139.0597 516,-162 516,-162 516,-162 606.1633,-162 606.1633,-162"/>
<polygon fill="#000000" stroke="#000000" points="606.1634,-165.5001 616.1633,-162 606.1633,-158.5001 606.1634,-165.5001"/>
</g>
<!-- TemplateComponent -->
<g id="node4" class="node">
<title>TemplateComponent</title>
<polygon fill="#ffffb3" stroke="#000000" points="433.2008,-122 298.7992,-122 298.7992,-86 433.2008,-86 433.2008,-122"/>
<text text-anchor="middle" x="366" y="-99.8" font-family="Times,serif" font-size="14.00" fill="#000000">TemplateComponent</text>
</g>
<!-- TemplateComponent&#45;&gt;AppModule -->
<g id="edge4" class="edge">
<title>TemplateComponent&#45;&gt;AppModule</title>
<path fill="none" stroke="#000000" d="M366,-122.1061C366,-141.3391 366,-169 366,-169 366,-169 606.1635,-169 606.1635,-169"/>
<polygon fill="#000000" stroke="#000000" points="606.1636,-172.5001 616.1635,-169 606.1635,-165.5001 606.1636,-172.5001"/>
</g>
<!-- AppComponent  -->
<g id="node11" class="node">
<title>AppComponent </title>
<polygon fill="#80b1d3" stroke="#000000" points="712.439,-258 603.561,-258 603.561,-222 712.439,-222 712.439,-258"/>
<text text-anchor="middle" x="658" y="-235.8" font-family="Times,serif" font-size="14.00" fill="#000000">AppComponent </text>
</g>
<!-- AppModule&#45;&gt;AppComponent  -->
<g id="edge10" class="edge">
<title>AppModule&#45;&gt;AppComponent </title>
<path fill="none" stroke="#000000" stroke-dasharray="1,5" d="M658,-190.2228C658,-190.2228 658,-211.7269 658,-211.7269"/>
<polygon fill="#000000" stroke="#000000" points="654.5001,-211.7269 658,-221.7269 661.5001,-211.727 654.5001,-211.7269"/>
</g>
<!-- AppRoutingModule -->
<g id="node6" class="node">
<title>AppRoutingModule</title>
<polygon fill="#8dd3c7" stroke="#000000" points="858.2744,-122 855.2744,-126 834.2744,-126 831.2744,-122 729.7256,-122 729.7256,-86 858.2744,-86 858.2744,-122"/>
<text text-anchor="middle" x="794" y="-99.8" font-family="Times,serif" font-size="14.00" fill="#000000">AppRoutingModule</text>
</g>
<!-- AppRoutingModule&#45;&gt;AppModule -->
<g id="edge5" class="edge">
<title>AppRoutingModule&#45;&gt;AppModule</title>
<path fill="none" stroke="#000000" d="M794,-122.2667C794,-140.5552 794,-166 794,-166 794,-166 709.9142,-166 709.9142,-166"/>
<polygon fill="#000000" stroke="#000000" points="709.9142,-162.5001 699.9142,-166 709.9142,-169.5001 709.9142,-162.5001"/>
</g>
<!-- MaterialModule -->
<g id="node7" class="node">
<title>MaterialModule</title>
<polygon fill="#8dd3c7" stroke="#000000" points="711.4706,-122 708.4706,-126 687.4706,-126 684.4706,-122 604.5294,-122 604.5294,-86 711.4706,-86 711.4706,-122"/>
<text text-anchor="middle" x="658" y="-99.8" font-family="Times,serif" font-size="14.00" fill="#000000">MaterialModule</text>
</g>
<!-- MaterialModule&#45;&gt;AppModule -->
<g id="edge6" class="edge">
<title>MaterialModule&#45;&gt;AppModule</title>
<path fill="none" stroke="#000000" d="M658,-122.2228C658,-122.2228 658,-143.7269 658,-143.7269"/>
<polygon fill="#000000" stroke="#000000" points="654.5001,-143.7269 658,-153.7269 661.5001,-143.727 654.5001,-143.7269"/>
</g>
<!-- RecaptchaDirectiveModule -->
<g id="node8" class="node">
<title>RecaptchaDirectiveModule</title>
<polygon fill="#8dd3c7" stroke="#000000" points="1221.9328,-122 1218.9328,-126 1197.9328,-126 1194.9328,-122 1052.0672,-122 1052.0672,-86 1221.9328,-86 1221.9328,-122"/>
<text text-anchor="middle" x="1137" y="-99.8" font-family="Times,serif" font-size="14.00" fill="#000000">RecaptchaDirectiveModule</text>
</g>
<!-- RecaptchaDirectiveModule&#45;&gt;AppModule -->
<g id="edge7" class="edge">
<title>RecaptchaDirectiveModule&#45;&gt;AppModule</title>
<path fill="none" stroke="#000000" d="M1137,-122.2921C1137,-144.2057 1137,-178 1137,-178 1137,-178 709.6702,-178 709.6702,-178"/>
<polygon fill="#000000" stroke="#000000" points="709.6702,-174.5001 699.6702,-178 709.6701,-181.5001 709.6702,-174.5001"/>
</g>
<!-- RecaptchaDirective  -->
<g id="node13" class="node">
<title>RecaptchaDirective </title>
<polygon fill="#fb8072" stroke="#000000" points="1563.8831,-190 1434.1169,-190 1434.1169,-154 1563.8831,-154 1563.8831,-190"/>
<text text-anchor="middle" x="1499" y="-167.8" font-family="Times,serif" font-size="14.00" fill="#000000">RecaptchaDirective </text>
</g>
<!-- RecaptchaDirectiveModule&#45;&gt;RecaptchaDirective  -->
<g id="edge12" class="edge">
<title>RecaptchaDirectiveModule&#45;&gt;RecaptchaDirective </title>
<path fill="none" stroke="#000000" stroke-dasharray="5,2" d="M1179.4832,-122.027C1179.4832,-138.3976 1179.4832,-160 1179.4832,-160 1179.4832,-160 1423.9559,-160 1423.9559,-160"/>
<polygon fill="#000000" stroke="#000000" points="1423.9559,-163.5001 1433.9559,-160 1423.9558,-156.5001 1423.9559,-163.5001"/>
</g>
<!-- RecaptchaFormsModule -->
<g id="node9" class="node">
<title>RecaptchaFormsModule</title>
<polygon fill="#8dd3c7" stroke="#000000" points="1393.6288,-122 1390.6288,-126 1369.6288,-126 1366.6288,-122 1240.3712,-122 1240.3712,-86 1393.6288,-86 1393.6288,-122"/>
<text text-anchor="middle" x="1317" y="-99.8" font-family="Times,serif" font-size="14.00" fill="#000000">RecaptchaFormsModule</text>
</g>
<!-- RecaptchaFormsModule&#45;&gt;AppModule -->
<g id="edge8" class="edge">
<title>RecaptchaFormsModule&#45;&gt;AppModule</title>
<path fill="none" stroke="#000000" d="M1317,-122.1532C1317,-145.7566 1317,-184 1317,-184 1317,-184 709.7233,-184 709.7233,-184"/>
<polygon fill="#000000" stroke="#000000" points="709.7234,-180.5001 699.7233,-184 709.7233,-187.5001 709.7234,-180.5001"/>
</g>
<!-- RecaptchaFormsModule&#45;&gt;RecaptchaDirective  -->
<g id="edge14" class="edge">
<title>RecaptchaFormsModule&#45;&gt;RecaptchaDirective </title>
<path fill="none" stroke="#000000" stroke-dasharray="5,2" d="M1393.6569,-110C1443.3962,-110 1499,-110 1499,-110 1499,-110 1499,-143.7333 1499,-143.7333"/>
<polygon fill="#000000" stroke="#000000" points="1495.5001,-143.7333 1499,-153.7333 1502.5001,-143.7333 1495.5001,-143.7333"/>
</g>
<!-- RecaptchaLoaderModule -->
<g id="node10" class="node">
<title>RecaptchaLoaderModule</title>
<polygon fill="#8dd3c7" stroke="#000000" points="1033.9932,-122 1030.9932,-126 1009.9932,-126 1006.9932,-122 876.0068,-122 876.0068,-86 1033.9932,-86 1033.9932,-122"/>
<text text-anchor="middle" x="955" y="-99.8" font-family="Times,serif" font-size="14.00" fill="#000000">RecaptchaLoaderModule</text>
</g>
<!-- RecaptchaLoaderModule&#45;&gt;AppModule -->
<g id="edge9" class="edge">
<title>RecaptchaLoaderModule&#45;&gt;AppModule</title>
<path fill="none" stroke="#000000" d="M955,-122.2228C955,-142.3652 955,-172 955,-172 955,-172 709.9229,-172 709.9229,-172"/>
<polygon fill="#000000" stroke="#000000" points="709.923,-168.5001 699.9229,-172 709.9229,-175.5001 709.923,-168.5001"/>
</g>
<!-- RecaptchaDirective -->
<g id="node12" class="node">
<title>RecaptchaDirective</title>
<polygon fill="#ffffb3" stroke="#000000" points="1714.3836,-190 1587.6164,-190 1587.6164,-154 1714.3836,-154 1714.3836,-190"/>
<text text-anchor="middle" x="1651" y="-167.8" font-family="Times,serif" font-size="14.00" fill="#000000">RecaptchaDirective</text>
</g>
<!-- RecaptchaDirective&#45;&gt;RecaptchaDirectiveModule -->
<g id="edge11" class="edge">
<title>RecaptchaDirective&#45;&gt;RecaptchaDirectiveModule</title>
<path fill="none" stroke="#000000" d="M1672.0638,-153.8056C1672.0638,-145.7218 1672.0638,-138 1672.0638,-138 1672.0638,-138 1094.5168,-138 1094.5168,-138 1094.5168,-138 1094.5168,-132.1944 1094.5168,-132.1944"/>
<polygon fill="#000000" stroke="#000000" points="1098.0169,-132.1944 1094.5168,-122.1944 1091.0169,-132.1945 1098.0169,-132.1944"/>
</g>
<!-- RecaptchaDirective&#45;&gt;RecaptchaFormsModule -->
<g id="edge13" class="edge">
<title>RecaptchaDirective&#45;&gt;RecaptchaFormsModule</title>
<path fill="none" stroke="#000000" d="M1629.9362,-153.7079C1629.9362,-131.7943 1629.9362,-98 1629.9362,-98 1629.9362,-98 1403.9536,-98 1403.9536,-98"/>
<polygon fill="#000000" stroke="#000000" points="1403.9536,-94.5001 1393.9536,-98 1403.9536,-101.5001 1403.9536,-94.5001"/>
</g>
</g>
</svg>
