<?xml version="1.0" encoding="UTF-8" standalone="no"?>
<!DOCTYPE svg PUBLIC "-//W3C//DTD SVG 1.1//EN"
 "http://www.w3.org/Graphics/SVG/1.1/DTD/svg11.dtd">
<!-- Generated by graphviz version 2.40.1 (20161225.0304)
 -->
<!-- Title: dependencies Pages: 1 -->
<svg width="1374pt" height="284pt"
 viewBox="0.00 0.00 1374.00 284.00" xmlns="http://www.w3.org/2000/svg" xmlns:xlink="http://www.w3.org/1999/xlink">
<g id="graph0" class="graph" transform="scale(1 1) rotate(0) translate(4 280)">
<title>dependencies</title>
<polygon fill="#ffffff" stroke="transparent" points="-4,4 -4,-280 1370,-280 1370,4 -4,4"/>
<text text-anchor="start" x="662.0091" y="-42.4" font-family="sans-serif" font-weight="bold" font-size="14.00" fill="#000000">Legend</text>
<polygon fill="#ffffb3" stroke="transparent" points="449,-10 449,-30 469,-30 469,-10 449,-10"/>
<text text-anchor="start" x="472.629" y="-15.4" font-family="sans-serif" font-size="14.00" fill="#000000"> &#160;Declarations</text>
<polygon fill="#8dd3c7" stroke="transparent" points="562,-10 562,-30 582,-30 582,-10 562,-10"/>
<text text-anchor="start" x="585.7251" y="-15.4" font-family="sans-serif" font-size="14.00" fill="#000000"> &#160;Module</text>
<polygon fill="#80b1d3" stroke="transparent" points="648,-10 648,-30 668,-30 668,-10 648,-10"/>
<text text-anchor="start" x="671.7812" y="-15.4" font-family="sans-serif" font-size="14.00" fill="#000000"> &#160;Bootstrap</text>
<polygon fill="#fdb462" stroke="transparent" points="745,-10 745,-30 765,-30 765,-10 745,-10"/>
<text text-anchor="start" x="768.6732" y="-15.4" font-family="sans-serif" font-size="14.00" fill="#000000"> &#160;Providers</text>
<polygon fill="#fb8072" stroke="transparent" points="841,-10 841,-30 861,-30 861,-10 841,-10"/>
<text text-anchor="start" x="864.7258" y="-15.4" font-family="sans-serif" font-size="14.00" fill="#000000"> &#160;Exports</text>
<g id="clust1" class="cluster">
<title>cluster_AppModule</title>
<polygon fill="none" stroke="#000000" stroke-dasharray="1,5" points="8,-70 8,-268 1358,-268 1358,-70 8,-70"/>
</g>
<g id="clust2" class="cluster">
<title>cluster_AppModule_declarations</title>
<polygon fill="none" stroke="#000000" points="777,-78 777,-130 1350,-130 1350,-78 777,-78"/>
</g>
<g id="clust7" class="cluster">
<title>cluster_AppModule_imports</title>
<polygon fill="none" stroke="#000000" points="16,-78 16,-130 769,-130 769,-78 16,-78"/>
</g>
<g id="clust9" class="cluster">
<title>cluster_AppModule_bootstrap</title>
<polygon fill="none" stroke="#000000" points="635,-208 635,-260 759,-260 759,-208 635,-208"/>
</g>
<!-- AppComponent -->
<g id="node1" class="node">
<title>AppComponent</title>
<polygon fill="#ffffb3" stroke="#000000" points="1341.9399,-122 1236.0601,-122 1236.0601,-86 1341.9399,-86 1341.9399,-122"/>
<text text-anchor="middle" x="1289" y="-99.8" font-family="Times,serif" font-size="14.00" fill="#000000">AppComponent</text>
</g>
<!-- AppModule -->
<g id="node5" class="node">
<title>AppModule</title>
<polygon fill="#8dd3c7" stroke="#000000" points="738.6571,-187 735.6571,-191 714.6571,-191 711.6571,-187 655.3429,-187 655.3429,-151 738.6571,-151 738.6571,-187"/>
<text text-anchor="middle" x="697" y="-164.8" font-family="Times,serif" font-size="14.00" fill="#000000">AppModule</text>
</g>
<!-- AppComponent&#45;&gt;AppModule -->
<g id="edge1" class="edge">
<title>AppComponent&#45;&gt;AppModule</title>
<path fill="none" stroke="#000000" d="M1289,-122.0109C1289,-144.4852 1289,-180 1289,-180 1289,-180 749.1006,-180 749.1006,-180"/>
<polygon fill="#000000" stroke="#000000" points="749.1006,-176.5001 739.1006,-180 749.1006,-183.5001 749.1006,-176.5001"/>
</g>
<!-- DirectiveComponent -->
<g id="node2" class="node">
<title>DirectiveComponent</title>
<polygon fill="#ffffb3" stroke="#000000" points="1218.9158,-122 1085.0842,-122 1085.0842,-86 1218.9158,-86 1218.9158,-122"/>
<text text-anchor="middle" x="1152" y="-99.8" font-family="Times,serif" font-size="14.00" fill="#000000">DirectiveComponent</text>
</g>
<!-- DirectiveComponent&#45;&gt;AppModule -->
<g id="edge2" class="edge">
<title>DirectiveComponent&#45;&gt;AppModule</title>
<path fill="none" stroke="#000000" d="M1152,-122.1289C1152,-142.5724 1152,-173 1152,-173 1152,-173 748.9897,-173 748.9897,-173"/>
<polygon fill="#000000" stroke="#000000" points="748.9898,-169.5001 738.9897,-173 748.9897,-176.5001 748.9898,-169.5001"/>
</g>
<!-- ReactiveComponent -->
<g id="node3" class="node">
<title>ReactiveComponent</title>
<polygon fill="#ffffb3" stroke="#000000" points="1067.309,-122 936.691,-122 936.691,-86 1067.309,-86 1067.309,-122"/>
<text text-anchor="middle" x="1002" y="-99.8" font-family="Times,serif" font-size="14.00" fill="#000000">ReactiveComponent</text>
</g>
<!-- ReactiveComponent&#45;&gt;AppModule -->
<g id="edge3" class="edge">
<title>ReactiveComponent&#45;&gt;AppModule</title>
<path fill="none" stroke="#000000" d="M1002,-122.2667C1002,-140.5552 1002,-166 1002,-166 1002,-166 748.7694,-166 748.7694,-166"/>
<polygon fill="#000000" stroke="#000000" points="748.7695,-162.5001 738.7694,-166 748.7694,-169.5001 748.7695,-162.5001"/>
</g>
<!-- TemplateComponent -->
<g id="node4" class="node">
<title>TemplateComponent</title>
<polygon fill="#ffffb3" stroke="#000000" points="919.2008,-122 784.7992,-122 784.7992,-86 919.2008,-86 919.2008,-122"/>
<text text-anchor="middle" x="852" y="-99.8" font-family="Times,serif" font-size="14.00" fill="#000000">TemplateComponent</text>
</g>
<!-- TemplateComponent&#45;&gt;AppModule -->
<g id="edge4" class="edge">
<title>TemplateComponent&#45;&gt;AppModule</title>
<path fill="none" stroke="#000000" d="M852,-122.0091C852,-138.0494 852,-159 852,-159 852,-159 748.9452,-159 748.9452,-159"/>
<polygon fill="#000000" stroke="#000000" points="748.9453,-155.5001 738.9452,-159 748.9452,-162.5001 748.9453,-155.5001"/>
</g>
<!-- AppComponent  -->
<g id="node11" class="node">
<title>AppComponent </title>
<polygon fill="#80b1d3" stroke="#000000" points="751.439,-252 642.561,-252 642.561,-216 751.439,-216 751.439,-252"/>
<text text-anchor="middle" x="697" y="-229.8" font-family="Times,serif" font-size="14.00" fill="#000000">AppComponent </text>
</g>
<!-- AppModule&#45;&gt;AppComponent  -->
<g id="edge10" class="edge">
<title>AppModule&#45;&gt;AppComponent </title>
<path fill="none" stroke="#000000" stroke-dasharray="1,5" d="M697,-187.1061C697,-187.1061 697,-205.991 697,-205.991"/>
<polygon fill="#000000" stroke="#000000" points="693.5001,-205.9909 697,-215.991 700.5001,-205.991 693.5001,-205.9909"/>
</g>
<!-- AppRoutingModule -->
<g id="node6" class="node">
<title>AppRoutingModule</title>
<polygon fill="#8dd3c7" stroke="#000000" points="761.2744,-122 758.2744,-126 737.2744,-126 734.2744,-122 632.7256,-122 632.7256,-86 761.2744,-86 761.2744,-122"/>
<text text-anchor="middle" x="697" y="-99.8" font-family="Times,serif" font-size="14.00" fill="#000000">AppRoutingModule</text>
</g>
<!-- AppRoutingModule&#45;&gt;AppModule -->
<g id="edge5" class="edge">
<title>AppRoutingModule&#45;&gt;AppModule</title>
<path fill="none" stroke="#000000" d="M697,-122.1061C697,-122.1061 697,-140.991 697,-140.991"/>
<polygon fill="#000000" stroke="#000000" points="693.5001,-140.9909 697,-150.991 700.5001,-140.991 693.5001,-140.9909"/>
</g>
<!-- MaterialModule -->
<g id="node7" class="node">
<title>MaterialModule</title>
<polygon fill="#8dd3c7" stroke="#000000" points="614.4706,-122 611.4706,-126 590.4706,-126 587.4706,-122 507.5294,-122 507.5294,-86 614.4706,-86 614.4706,-122"/>
<text text-anchor="middle" x="561" y="-99.8" font-family="Times,serif" font-size="14.00" fill="#000000">MaterialModule</text>
</g>
<!-- MaterialModule&#45;&gt;AppModule -->
<g id="edge6" class="edge">
<title>MaterialModule&#45;&gt;AppModule</title>
<path fill="none" stroke="#000000" d="M561,-122.0091C561,-138.0494 561,-159 561,-159 561,-159 645.0858,-159 645.0858,-159"/>
<polygon fill="#000000" stroke="#000000" points="645.0858,-162.5001 655.0858,-159 645.0858,-155.5001 645.0858,-162.5001"/>
</g>
<!-- RecaptchaFormsModule -->
<g id="node8" class="node">
<title>RecaptchaFormsModule</title>
<polygon fill="#8dd3c7" stroke="#000000" points="489.6288,-122 486.6288,-126 465.6288,-126 462.6288,-122 336.3712,-122 336.3712,-86 489.6288,-86 489.6288,-122"/>
<text text-anchor="middle" x="413" y="-99.8" font-family="Times,serif" font-size="14.00" fill="#000000">RecaptchaFormsModule</text>
</g>
<!-- RecaptchaFormsModule&#45;&gt;AppModule -->
<g id="edge7" class="edge">
<title>RecaptchaFormsModule&#45;&gt;AppModule</title>
<path fill="none" stroke="#000000" d="M413,-122.2667C413,-140.5552 413,-166 413,-166 413,-166 645.0948,-166 645.0948,-166"/>
<polygon fill="#000000" stroke="#000000" points="645.0949,-169.5001 655.0948,-166 645.0948,-162.5001 645.0949,-169.5001"/>
</g>
<!-- RecaptchaLoaderModule -->
<g id="node9" class="node">
<title>RecaptchaLoaderModule</title>
<polygon fill="#8dd3c7" stroke="#000000" points="317.9932,-122 314.9932,-126 293.9932,-126 290.9932,-122 160.0068,-122 160.0068,-86 317.9932,-86 317.9932,-122"/>
<text text-anchor="middle" x="239" y="-99.8" font-family="Times,serif" font-size="14.00" fill="#000000">RecaptchaLoaderModule</text>
</g>
<!-- RecaptchaLoaderModule&#45;&gt;AppModule -->
<g id="edge8" class="edge">
<title>RecaptchaLoaderModule&#45;&gt;AppModule</title>
<path fill="none" stroke="#000000" d="M239,-122.1289C239,-142.5724 239,-173 239,-173 239,-173 645.1414,-173 645.1414,-173"/>
<polygon fill="#000000" stroke="#000000" points="645.1414,-176.5001 655.1414,-173 645.1414,-169.5001 645.1414,-176.5001"/>
</g>
<!-- RecaptchaModule -->
<g id="node10" class="node">
<title>RecaptchaModule</title>
<polygon fill="#8dd3c7" stroke="#000000" points="141.8501,-122 138.8501,-126 117.8501,-126 114.8501,-122 24.1499,-122 24.1499,-86 141.8501,-86 141.8501,-122"/>
<text text-anchor="middle" x="83" y="-99.8" font-family="Times,serif" font-size="14.00" fill="#000000">RecaptchaModule</text>
</g>
<!-- RecaptchaModule&#45;&gt;AppModule -->
<g id="edge9" class="edge">
<title>RecaptchaModule&#45;&gt;AppModule</title>
<path fill="none" stroke="#000000" d="M83,-122.0109C83,-144.4852 83,-180 83,-180 83,-180 645.28,-180 645.28,-180"/>
<polygon fill="#000000" stroke="#000000" points="645.28,-183.5001 655.28,-180 645.28,-176.5001 645.28,-183.5001"/>
</g>
</g>
</svg>
