<?xml version="1.0" encoding="UTF-8" standalone="no"?>
<!DOCTYPE svg PUBLIC "-//W3C//DTD SVG 1.1//EN"
 "http://www.w3.org/Graphics/SVG/1.1/DTD/svg11.dtd">
<!-- Generated by graphviz version 2.40.1 (20161225.0304)
 -->
<!-- Title: dependencies Pages: 1 -->
<svg width="1426pt" height="284pt"
 viewBox="0.00 0.00 1426.00 284.00" xmlns="http://www.w3.org/2000/svg" xmlns:xlink="http://www.w3.org/1999/xlink">
<g id="graph0" class="graph" transform="scale(1 1) rotate(0) translate(4 280)">
<title>dependencies</title>
<polygon fill="#ffffff" stroke="transparent" points="-4,4 -4,-280 1422,-280 1422,4 -4,4"/>
<text text-anchor="start" x="688.0091" y="-42.4" font-family="sans-serif" font-weight="bold" font-size="14.00" fill="#000000">Legend</text>
<polygon fill="#ffffb3" stroke="transparent" points="475,-10 475,-30 495,-30 495,-10 475,-10"/>
<text text-anchor="start" x="498.629" y="-15.4" font-family="sans-serif" font-size="14.00" fill="#000000"> &#160;Declarations</text>
<polygon fill="#8dd3c7" stroke="transparent" points="588,-10 588,-30 608,-30 608,-10 588,-10"/>
<text text-anchor="start" x="611.7251" y="-15.4" font-family="sans-serif" font-size="14.00" fill="#000000"> &#160;Module</text>
<polygon fill="#80b1d3" stroke="transparent" points="674,-10 674,-30 694,-30 694,-10 674,-10"/>
<text text-anchor="start" x="697.7812" y="-15.4" font-family="sans-serif" font-size="14.00" fill="#000000"> &#160;Bootstrap</text>
<polygon fill="#fdb462" stroke="transparent" points="771,-10 771,-30 791,-30 791,-10 771,-10"/>
<text text-anchor="start" x="794.6732" y="-15.4" font-family="sans-serif" font-size="14.00" fill="#000000"> &#160;Providers</text>
<polygon fill="#fb8072" stroke="transparent" points="867,-10 867,-30 887,-30 887,-10 867,-10"/>
<text text-anchor="start" x="890.7258" y="-15.4" font-family="sans-serif" font-size="14.00" fill="#000000"> &#160;Exports</text>
<g id="clust1" class="cluster">
<title>cluster_AppModule</title>
<polygon fill="none" stroke="#000000" stroke-dasharray="1,5" points="8,-70 8,-268 1410,-268 1410,-70 8,-70"/>
</g>
<g id="clust2" class="cluster">
<title>cluster_AppModule_declarations</title>
<polygon fill="none" stroke="#000000" points="829,-78 829,-130 1402,-130 1402,-78 829,-78"/>
</g>
<g id="clust7" class="cluster">
<title>cluster_AppModule_imports</title>
<polygon fill="none" stroke="#000000" points="16,-78 16,-130 821,-130 821,-78 16,-78"/>
</g>
<g id="clust9" class="cluster">
<title>cluster_AppModule_bootstrap</title>
<polygon fill="none" stroke="#000000" points="687,-208 687,-260 811,-260 811,-208 687,-208"/>
</g>
<!-- AppComponent -->
<g id="node1" class="node">
<title>AppComponent</title>
<polygon fill="#ffffb3" stroke="#000000" points="1393.9399,-122 1288.0601,-122 1288.0601,-86 1393.9399,-86 1393.9399,-122"/>
<text text-anchor="middle" x="1341" y="-99.8" font-family="Times,serif" font-size="14.00" fill="#000000">AppComponent</text>
</g>
<!-- AppModule -->
<g id="node5" class="node">
<title>AppModule</title>
<polygon fill="#8dd3c7" stroke="#000000" points="790.6571,-187 787.6571,-191 766.6571,-191 763.6571,-187 707.3429,-187 707.3429,-151 790.6571,-151 790.6571,-187"/>
<text text-anchor="middle" x="749" y="-164.8" font-family="Times,serif" font-size="14.00" fill="#000000">AppModule</text>
</g>
<!-- AppComponent&#45;&gt;AppModule -->
<g id="edge1" class="edge">
<title>AppComponent&#45;&gt;AppModule</title>
<path fill="none" stroke="#000000" d="M1341,-122.0109C1341,-144.4852 1341,-180 1341,-180 1341,-180 801.1006,-180 801.1006,-180"/>
<polygon fill="#000000" stroke="#000000" points="801.1006,-176.5001 791.1006,-180 801.1006,-183.5001 801.1006,-176.5001"/>
</g>
<!-- DirectiveComponent -->
<g id="node2" class="node">
<title>DirectiveComponent</title>
<polygon fill="#ffffb3" stroke="#000000" points="1270.9158,-122 1137.0842,-122 1137.0842,-86 1270.9158,-86 1270.9158,-122"/>
<text text-anchor="middle" x="1204" y="-99.8" font-family="Times,serif" font-size="14.00" fill="#000000">DirectiveComponent</text>
</g>
<!-- DirectiveComponent&#45;&gt;AppModule -->
<g id="edge2" class="edge">
<title>DirectiveComponent&#45;&gt;AppModule</title>
<path fill="none" stroke="#000000" d="M1204,-122.1289C1204,-142.5724 1204,-173 1204,-173 1204,-173 800.9897,-173 800.9897,-173"/>
<polygon fill="#000000" stroke="#000000" points="800.9898,-169.5001 790.9897,-173 800.9897,-176.5001 800.9898,-169.5001"/>
</g>
<!-- ReactiveComponent -->
<g id="node3" class="node">
<title>ReactiveComponent</title>
<polygon fill="#ffffb3" stroke="#000000" points="1119.309,-122 988.691,-122 988.691,-86 1119.309,-86 1119.309,-122"/>
<text text-anchor="middle" x="1054" y="-99.8" font-family="Times,serif" font-size="14.00" fill="#000000">ReactiveComponent</text>
</g>
<!-- ReactiveComponent&#45;&gt;AppModule -->
<g id="edge3" class="edge">
<title>ReactiveComponent&#45;&gt;AppModule</title>
<path fill="none" stroke="#000000" d="M1054,-122.2667C1054,-140.5552 1054,-166 1054,-166 1054,-166 800.7694,-166 800.7694,-166"/>
<polygon fill="#000000" stroke="#000000" points="800.7695,-162.5001 790.7694,-166 800.7694,-169.5001 800.7695,-162.5001"/>
</g>
<!-- TemplateComponent -->
<g id="node4" class="node">
<title>TemplateComponent</title>
<polygon fill="#ffffb3" stroke="#000000" points="971.2008,-122 836.7992,-122 836.7992,-86 971.2008,-86 971.2008,-122"/>
<text text-anchor="middle" x="904" y="-99.8" font-family="Times,serif" font-size="14.00" fill="#000000">TemplateComponent</text>
</g>
<!-- TemplateComponent&#45;&gt;AppModule -->
<g id="edge4" class="edge">
<title>TemplateComponent&#45;&gt;AppModule</title>
<path fill="none" stroke="#000000" d="M904,-122.0091C904,-138.0494 904,-159 904,-159 904,-159 800.9452,-159 800.9452,-159"/>
<polygon fill="#000000" stroke="#000000" points="800.9453,-155.5001 790.9452,-159 800.9452,-162.5001 800.9453,-155.5001"/>
</g>
<!-- AppComponent  -->
<g id="node11" class="node">
<title>AppComponent </title>
<polygon fill="#80b1d3" stroke="#000000" points="803.439,-252 694.561,-252 694.561,-216 803.439,-216 803.439,-252"/>
<text text-anchor="middle" x="749" y="-229.8" font-family="Times,serif" font-size="14.00" fill="#000000">AppComponent </text>
</g>
<!-- AppModule&#45;&gt;AppComponent  -->
<g id="edge10" class="edge">
<title>AppModule&#45;&gt;AppComponent </title>
<path fill="none" stroke="#000000" stroke-dasharray="1,5" d="M749,-187.1061C749,-187.1061 749,-205.991 749,-205.991"/>
<polygon fill="#000000" stroke="#000000" points="745.5001,-205.9909 749,-215.991 752.5001,-205.991 745.5001,-205.9909"/>
</g>
<!-- AppRoutingModule -->
<g id="node6" class="node">
<title>AppRoutingModule</title>
<polygon fill="#8dd3c7" stroke="#000000" points="813.2744,-122 810.2744,-126 789.2744,-126 786.2744,-122 684.7256,-122 684.7256,-86 813.2744,-86 813.2744,-122"/>
<text text-anchor="middle" x="749" y="-99.8" font-family="Times,serif" font-size="14.00" fill="#000000">AppRoutingModule</text>
</g>
<!-- AppRoutingModule&#45;&gt;AppModule -->
<g id="edge5" class="edge">
<title>AppRoutingModule&#45;&gt;AppModule</title>
<path fill="none" stroke="#000000" d="M749,-122.1061C749,-122.1061 749,-140.991 749,-140.991"/>
<polygon fill="#000000" stroke="#000000" points="745.5001,-140.9909 749,-150.991 752.5001,-140.991 745.5001,-140.9909"/>
</g>
<!-- MaterialModule -->
<g id="node7" class="node">
<title>MaterialModule</title>
<polygon fill="#8dd3c7" stroke="#000000" points="666.4706,-122 663.4706,-126 642.4706,-126 639.4706,-122 559.5294,-122 559.5294,-86 666.4706,-86 666.4706,-122"/>
<text text-anchor="middle" x="613" y="-99.8" font-family="Times,serif" font-size="14.00" fill="#000000">MaterialModule</text>
</g>
<!-- MaterialModule&#45;&gt;AppModule -->
<g id="edge6" class="edge">
<title>MaterialModule&#45;&gt;AppModule</title>
<path fill="none" stroke="#000000" d="M613,-122.0091C613,-138.0494 613,-159 613,-159 613,-159 697.0858,-159 697.0858,-159"/>
<polygon fill="#000000" stroke="#000000" points="697.0858,-162.5001 707.0858,-159 697.0858,-155.5001 697.0858,-162.5001"/>
</g>
<!-- RecaptchaDirectiveModule -->
<g id="node8" class="node">
<title>RecaptchaDirectiveModule</title>
<polygon fill="#8dd3c7" stroke="#000000" points="541.9328,-122 538.9328,-126 517.9328,-126 514.9328,-122 372.0672,-122 372.0672,-86 541.9328,-86 541.9328,-122"/>
<text text-anchor="middle" x="457" y="-99.8" font-family="Times,serif" font-size="14.00" fill="#000000">RecaptchaDirectiveModule</text>
</g>
<!-- RecaptchaDirectiveModule&#45;&gt;AppModule -->
<g id="edge7" class="edge">
<title>RecaptchaDirectiveModule&#45;&gt;AppModule</title>
<path fill="none" stroke="#000000" d="M457,-122.2667C457,-140.5552 457,-166 457,-166 457,-166 697.1635,-166 697.1635,-166"/>
<polygon fill="#000000" stroke="#000000" points="697.1636,-169.5001 707.1635,-166 697.1635,-162.5001 697.1636,-169.5001"/>
</g>
<!-- RecaptchaFormsModule -->
<g id="node9" class="node">
<title>RecaptchaFormsModule</title>
<polygon fill="#8dd3c7" stroke="#000000" points="353.6288,-122 350.6288,-126 329.6288,-126 326.6288,-122 200.3712,-122 200.3712,-86 353.6288,-86 353.6288,-122"/>
<text text-anchor="middle" x="277" y="-99.8" font-family="Times,serif" font-size="14.00" fill="#000000">RecaptchaFormsModule</text>
</g>
<!-- RecaptchaFormsModule&#45;&gt;AppModule -->
<g id="edge8" class="edge">
<title>RecaptchaFormsModule&#45;&gt;AppModule</title>
<path fill="none" stroke="#000000" d="M277,-122.1289C277,-142.5724 277,-173 277,-173 277,-173 697.1131,-173 697.1131,-173"/>
<polygon fill="#000000" stroke="#000000" points="697.1132,-176.5001 707.1131,-173 697.1131,-169.5001 697.1132,-176.5001"/>
</g>
<!-- RecaptchaLoaderModule -->
<g id="node10" class="node">
<title>RecaptchaLoaderModule</title>
<polygon fill="#8dd3c7" stroke="#000000" points="181.9932,-122 178.9932,-126 157.9932,-126 154.9932,-122 24.0068,-122 24.0068,-86 181.9932,-86 181.9932,-122"/>
<text text-anchor="middle" x="103" y="-99.8" font-family="Times,serif" font-size="14.00" fill="#000000">RecaptchaLoaderModule</text>
</g>
<!-- RecaptchaLoaderModule&#45;&gt;AppModule -->
<g id="edge9" class="edge">
<title>RecaptchaLoaderModule&#45;&gt;AppModule</title>
<path fill="none" stroke="#000000" d="M103,-122.0109C103,-144.4852 103,-180 103,-180 103,-180 697.1119,-180 697.1119,-180"/>
<polygon fill="#000000" stroke="#000000" points="697.1119,-183.5001 707.1119,-180 697.1118,-176.5001 697.1119,-183.5001"/>
</g>
</g>
</svg>
