<?xml version="1.0" encoding="UTF-8" standalone="no"?>
<!DOCTYPE svg PUBLIC "-//W3C//DTD SVG 1.1//EN"
 "http://www.w3.org/Graphics/SVG/1.1/DTD/svg11.dtd">
<!-- Generated by graphviz version 2.40.1 (20161225.0304)
 -->
<!-- Title: dependencies Pages: 1 -->
<svg width="1202pt" height="284pt"
 viewBox="0.00 0.00 1202.00 284.00" xmlns="http://www.w3.org/2000/svg" xmlns:xlink="http://www.w3.org/1999/xlink">
<g id="graph0" class="graph" transform="scale(1 1) rotate(0) translate(4 280)">
<title>dependencies</title>
<polygon fill="#ffffff" stroke="transparent" points="-4,4 -4,-280 1198,-280 1198,4 -4,4"/>
<text text-anchor="start" x="576.0091" y="-42.4" font-family="sans-serif" font-weight="bold" font-size="14.00" fill="#000000">Legend</text>
<polygon fill="#ffffb3" stroke="transparent" points="363,-10 363,-30 383,-30 383,-10 363,-10"/>
<text text-anchor="start" x="386.629" y="-15.4" font-family="sans-serif" font-size="14.00" fill="#000000"> &#160;Declarations</text>
<polygon fill="#8dd3c7" stroke="transparent" points="476,-10 476,-30 496,-30 496,-10 476,-10"/>
<text text-anchor="start" x="499.7251" y="-15.4" font-family="sans-serif" font-size="14.00" fill="#000000"> &#160;Module</text>
<polygon fill="#80b1d3" stroke="transparent" points="562,-10 562,-30 582,-30 582,-10 562,-10"/>
<text text-anchor="start" x="585.7812" y="-15.4" font-family="sans-serif" font-size="14.00" fill="#000000"> &#160;Bootstrap</text>
<polygon fill="#fdb462" stroke="transparent" points="659,-10 659,-30 679,-30 679,-10 659,-10"/>
<text text-anchor="start" x="682.6732" y="-15.4" font-family="sans-serif" font-size="14.00" fill="#000000"> &#160;Providers</text>
<polygon fill="#fb8072" stroke="transparent" points="755,-10 755,-30 775,-30 775,-10 755,-10"/>
<text text-anchor="start" x="778.7258" y="-15.4" font-family="sans-serif" font-size="14.00" fill="#000000"> &#160;Exports</text>
<g id="clust1" class="cluster">
<title>cluster_AppModule</title>
<polygon fill="none" stroke="#000000" stroke-dasharray="1,5" points="8,-70 8,-268 1186,-268 1186,-70 8,-70"/>
</g>
<g id="clust2" class="cluster">
<title>cluster_AppModule_declarations</title>
<polygon fill="none" stroke="#000000" points="604,-78 604,-130 1178,-130 1178,-78 604,-78"/>
</g>
<g id="clust7" class="cluster">
<title>cluster_AppModule_imports</title>
<polygon fill="none" stroke="#000000" points="16,-78 16,-130 596,-130 596,-78 16,-78"/>
</g>
<g id="clust9" class="cluster">
<title>cluster_AppModule_bootstrap</title>
<polygon fill="none" stroke="#000000" points="545,-208 545,-260 669,-260 669,-208 545,-208"/>
</g>
<!-- AppComponent -->
<g id="node1" class="node">
<title>AppComponent</title>
<polygon fill="#ffffb3" stroke="#000000" points="1169.9399,-122 1064.0601,-122 1064.0601,-86 1169.9399,-86 1169.9399,-122"/>
<text text-anchor="middle" x="1117" y="-99.8" font-family="Times,serif" font-size="14.00" fill="#000000">AppComponent</text>
</g>
<!-- AppModule -->
<g id="node5" class="node">
<title>AppModule</title>
<polygon fill="#8dd3c7" stroke="#000000" points="648.6571,-187 645.6571,-191 624.6571,-191 621.6571,-187 565.3429,-187 565.3429,-151 648.6571,-151 648.6571,-187"/>
<text text-anchor="middle" x="607" y="-164.8" font-family="Times,serif" font-size="14.00" fill="#000000">AppModule</text>
</g>
<!-- AppComponent&#45;&gt;AppModule -->
<g id="edge1" class="edge">
<title>AppComponent&#45;&gt;AppModule</title>
<path fill="none" stroke="#000000" d="M1117,-122.2921C1117,-144.2057 1117,-178 1117,-178 1117,-178 658.7354,-178 658.7354,-178"/>
<polygon fill="#000000" stroke="#000000" points="658.7355,-174.5001 648.7354,-178 658.7354,-181.5001 658.7355,-174.5001"/>
</g>
<!-- ReactiveComponent -->
<g id="node2" class="node">
<title>ReactiveComponent</title>
<polygon fill="#ffffb3" stroke="#000000" points="1046.309,-122 915.691,-122 915.691,-86 1046.309,-86 1046.309,-122"/>
<text text-anchor="middle" x="981" y="-99.8" font-family="Times,serif" font-size="14.00" fill="#000000">ReactiveComponent</text>
</g>
<!-- ReactiveComponent&#45;&gt;AppModule -->
<g id="edge2" class="edge">
<title>ReactiveComponent&#45;&gt;AppModule</title>
<path fill="none" stroke="#000000" d="M981,-122.1061C981,-141.3391 981,-169 981,-169 981,-169 658.8139,-169 658.8139,-169"/>
<polygon fill="#000000" stroke="#000000" points="658.8139,-165.5001 648.8139,-169 658.8139,-172.5001 658.8139,-165.5001"/>
</g>
<!-- TemplateComponent -->
<g id="node3" class="node">
<title>TemplateComponent</title>
<polygon fill="#ffffb3" stroke="#000000" points="898.2008,-122 763.7992,-122 763.7992,-86 898.2008,-86 898.2008,-122"/>
<text text-anchor="middle" x="831" y="-99.8" font-family="Times,serif" font-size="14.00" fill="#000000">TemplateComponent</text>
</g>
<!-- TemplateComponent&#45;&gt;AppModule -->
<g id="edge3" class="edge">
<title>TemplateComponent&#45;&gt;AppModule</title>
<path fill="none" stroke="#000000" d="M831,-122.027C831,-138.3976 831,-160 831,-160 831,-160 658.8699,-160 658.8699,-160"/>
<polygon fill="#000000" stroke="#000000" points="658.87,-156.5001 648.8699,-160 658.8699,-163.5001 658.87,-156.5001"/>
</g>
<!-- DirectiveComponent -->
<g id="node4" class="node">
<title>DirectiveComponent</title>
<polygon fill="#ffffb3" stroke="#000000" points="745.9158,-122 612.0842,-122 612.0842,-86 745.9158,-86 745.9158,-122"/>
<text text-anchor="middle" x="679" y="-99.8" font-family="Times,serif" font-size="14.00" fill="#000000">DirectiveComponent</text>
</g>
<!-- DirectiveComponent&#45;&gt;AppModule -->
<g id="edge4" class="edge">
<title>DirectiveComponent&#45;&gt;AppModule</title>
<path fill="none" stroke="#000000" d="M630.5603,-122.1061C630.5603,-122.1061 630.5603,-140.991 630.5603,-140.991"/>
<polygon fill="#000000" stroke="#000000" points="627.0604,-140.9909 630.5603,-150.991 634.0604,-140.991 627.0604,-140.9909"/>
</g>
<!-- AppComponent  -->
<g id="node10" class="node">
<title>AppComponent </title>
<polygon fill="#80b1d3" stroke="#000000" points="661.439,-252 552.561,-252 552.561,-216 661.439,-216 661.439,-252"/>
<text text-anchor="middle" x="607" y="-229.8" font-family="Times,serif" font-size="14.00" fill="#000000">AppComponent </text>
</g>
<!-- AppModule&#45;&gt;AppComponent  -->
<g id="edge9" class="edge">
<title>AppModule&#45;&gt;AppComponent </title>
<path fill="none" stroke="#000000" stroke-dasharray="1,5" d="M607,-187.1061C607,-187.1061 607,-205.991 607,-205.991"/>
<polygon fill="#000000" stroke="#000000" points="603.5001,-205.9909 607,-215.991 610.5001,-205.991 603.5001,-205.9909"/>
</g>
<!-- MaterialModule -->
<g id="node6" class="node">
<title>MaterialModule</title>
<polygon fill="#8dd3c7" stroke="#000000" points="588.4706,-122 585.4706,-126 564.4706,-126 561.4706,-122 481.5294,-122 481.5294,-86 588.4706,-86 588.4706,-122"/>
<text text-anchor="middle" x="535" y="-99.8" font-family="Times,serif" font-size="14.00" fill="#000000">MaterialModule</text>
</g>
<!-- MaterialModule&#45;&gt;AppModule -->
<g id="edge5" class="edge">
<title>MaterialModule&#45;&gt;AppModule</title>
<path fill="none" stroke="#000000" d="M576.8286,-122.1061C576.8286,-122.1061 576.8286,-140.991 576.8286,-140.991"/>
<polygon fill="#000000" stroke="#000000" points="573.3286,-140.9909 576.8286,-150.991 580.3286,-140.991 573.3286,-140.9909"/>
</g>
<!-- RecaptchaLoaderModule -->
<g id="node7" class="node">
<title>RecaptchaLoaderModule</title>
<polygon fill="#8dd3c7" stroke="#000000" points="463.9932,-122 460.9932,-126 439.9932,-126 436.9932,-122 306.0068,-122 306.0068,-86 463.9932,-86 463.9932,-122"/>
<text text-anchor="middle" x="385" y="-99.8" font-family="Times,serif" font-size="14.00" fill="#000000">RecaptchaLoaderModule</text>
</g>
<!-- RecaptchaLoaderModule&#45;&gt;AppModule -->
<g id="edge6" class="edge">
<title>RecaptchaLoaderModule&#45;&gt;AppModule</title>
<path fill="none" stroke="#000000" d="M385,-122.027C385,-138.3976 385,-160 385,-160 385,-160 555.2435,-160 555.2435,-160"/>
<polygon fill="#000000" stroke="#000000" points="555.2435,-163.5001 565.2435,-160 555.2435,-156.5001 555.2435,-163.5001"/>
</g>
<!-- RecaptchaModule -->
<g id="node8" class="node">
<title>RecaptchaModule</title>
<polygon fill="#8dd3c7" stroke="#000000" points="287.8501,-122 284.8501,-126 263.8501,-126 260.8501,-122 170.1499,-122 170.1499,-86 287.8501,-86 287.8501,-122"/>
<text text-anchor="middle" x="229" y="-99.8" font-family="Times,serif" font-size="14.00" fill="#000000">RecaptchaModule</text>
</g>
<!-- RecaptchaModule&#45;&gt;AppModule -->
<g id="edge7" class="edge">
<title>RecaptchaModule&#45;&gt;AppModule</title>
<path fill="none" stroke="#000000" d="M229,-122.1061C229,-141.3391 229,-169 229,-169 229,-169 555.1031,-169 555.1031,-169"/>
<polygon fill="#000000" stroke="#000000" points="555.1032,-172.5001 565.1031,-169 555.1031,-165.5001 555.1032,-172.5001"/>
</g>
<!-- AppRoutingModule -->
<g id="node9" class="node">
<title>AppRoutingModule</title>
<polygon fill="#8dd3c7" stroke="#000000" points="152.2744,-122 149.2744,-126 128.2744,-126 125.2744,-122 23.7256,-122 23.7256,-86 152.2744,-86 152.2744,-122"/>
<text text-anchor="middle" x="88" y="-99.8" font-family="Times,serif" font-size="14.00" fill="#000000">AppRoutingModule</text>
</g>
<!-- AppRoutingModule&#45;&gt;AppModule -->
<g id="edge8" class="edge">
<title>AppRoutingModule&#45;&gt;AppModule</title>
<path fill="none" stroke="#000000" d="M88,-122.2921C88,-144.2057 88,-178 88,-178 88,-178 554.9677,-178 554.9677,-178"/>
<polygon fill="#000000" stroke="#000000" points="554.9677,-181.5001 564.9677,-178 554.9676,-174.5001 554.9677,-181.5001"/>
</g>
</g>
</svg>
