<?xml version="1.0" encoding="UTF-8" standalone="no"?>
<!DOCTYPE svg PUBLIC "-//W3C//DTD SVG 1.1//EN"
 "http://www.w3.org/Graphics/SVG/1.1/DTD/svg11.dtd">
<!-- Generated by graphviz version 2.40.1 (20161225.0304)
 -->
<!-- Title: dependencies Pages: 1 -->
<svg width="902pt" height="284pt"
 viewBox="0.00 0.00 902.00 284.00" xmlns="http://www.w3.org/2000/svg" xmlns:xlink="http://www.w3.org/1999/xlink">
<g id="graph0" class="graph" transform="scale(1 1) rotate(0) translate(4 280)">
<title>dependencies</title>
<polygon fill="#ffffff" stroke="transparent" points="-4,4 -4,-280 898,-280 898,4 -4,4"/>
<text text-anchor="start" x="426.0091" y="-42.4" font-family="sans-serif" font-weight="bold" font-size="14.00" fill="#000000">Legend</text>
<polygon fill="#ffffb3" stroke="transparent" points="213,-10 213,-30 233,-30 233,-10 213,-10"/>
<text text-anchor="start" x="236.629" y="-15.4" font-family="sans-serif" font-size="14.00" fill="#000000"> &#160;Declarations</text>
<polygon fill="#8dd3c7" stroke="transparent" points="326,-10 326,-30 346,-30 346,-10 326,-10"/>
<text text-anchor="start" x="349.7251" y="-15.4" font-family="sans-serif" font-size="14.00" fill="#000000"> &#160;Module</text>
<polygon fill="#80b1d3" stroke="transparent" points="412,-10 412,-30 432,-30 432,-10 412,-10"/>
<text text-anchor="start" x="435.7812" y="-15.4" font-family="sans-serif" font-size="14.00" fill="#000000"> &#160;Bootstrap</text>
<polygon fill="#fdb462" stroke="transparent" points="509,-10 509,-30 529,-30 529,-10 509,-10"/>
<text text-anchor="start" x="532.6732" y="-15.4" font-family="sans-serif" font-size="14.00" fill="#000000"> &#160;Providers</text>
<polygon fill="#fb8072" stroke="transparent" points="605,-10 605,-30 625,-30 625,-10 605,-10"/>
<text text-anchor="start" x="628.7258" y="-15.4" font-family="sans-serif" font-size="14.00" fill="#000000"> &#160;Exports</text>
<g id="clust1" class="cluster">
<title>cluster_AppModule</title>
<polygon fill="none" stroke="#000000" stroke-dasharray="1,5" points="8,-70 8,-268 886,-268 886,-70 8,-70"/>
</g>
<g id="clust2" class="cluster">
<title>cluster_AppModule_declarations</title>
<polygon fill="none" stroke="#000000" points="605,-78 605,-130 878,-130 878,-78 605,-78"/>
</g>
<g id="clust5" class="cluster">
<title>cluster_AppModule_imports</title>
<polygon fill="none" stroke="#000000" points="16,-78 16,-130 597,-130 597,-78 16,-78"/>
</g>
<g id="clust7" class="cluster">
<title>cluster_AppModule_bootstrap</title>
<polygon fill="none" stroke="#000000" points="395,-208 395,-260 519,-260 519,-208 395,-208"/>
</g>
<!-- AppComponent -->
<g id="node1" class="node">
<title>AppComponent</title>
<polygon fill="#ffffb3" stroke="#000000" points="869.9399,-122 764.0601,-122 764.0601,-86 869.9399,-86 869.9399,-122"/>
<text text-anchor="middle" x="817" y="-99.8" font-family="Times,serif" font-size="14.00" fill="#000000">AppComponent</text>
</g>
<!-- AppModule -->
<g id="node3" class="node">
<title>AppModule</title>
<polygon fill="#8dd3c7" stroke="#000000" points="498.6571,-187 495.6571,-191 474.6571,-191 471.6571,-187 415.3429,-187 415.3429,-151 498.6571,-151 498.6571,-187"/>
<text text-anchor="middle" x="457" y="-164.8" font-family="Times,serif" font-size="14.00" fill="#000000">AppModule</text>
</g>
<!-- AppComponent&#45;&gt;AppModule -->
<g id="edge1" class="edge">
<title>AppComponent&#45;&gt;AppModule</title>
<path fill="none" stroke="#000000" d="M817,-122.2843C817,-143.3211 817,-175 817,-175 817,-175 509.0011,-175 509.0011,-175"/>
<polygon fill="#000000" stroke="#000000" points="509.0012,-171.5001 499.0011,-175 509.0011,-178.5001 509.0012,-171.5001"/>
</g>
<!-- DirectiveComponent -->
<g id="node2" class="node">
<title>DirectiveComponent</title>
<polygon fill="#ffffb3" stroke="#000000" points="746.9158,-122 613.0842,-122 613.0842,-86 746.9158,-86 746.9158,-122"/>
<text text-anchor="middle" x="680" y="-99.8" font-family="Times,serif" font-size="14.00" fill="#000000">DirectiveComponent</text>
</g>
<!-- DirectiveComponent&#45;&gt;AppModule -->
<g id="edge2" class="edge">
<title>DirectiveComponent&#45;&gt;AppModule</title>
<path fill="none" stroke="#000000" d="M680,-122.0225C680,-139.3734 680,-163 680,-163 680,-163 508.683,-163 508.683,-163"/>
<polygon fill="#000000" stroke="#000000" points="508.683,-159.5001 498.683,-163 508.683,-166.5001 508.683,-159.5001"/>
</g>
<!-- AppComponent  -->
<g id="node8" class="node">
<title>AppComponent </title>
<polygon fill="#80b1d3" stroke="#000000" points="511.439,-252 402.561,-252 402.561,-216 511.439,-216 511.439,-252"/>
<text text-anchor="middle" x="457" y="-229.8" font-family="Times,serif" font-size="14.00" fill="#000000">AppComponent </text>
</g>
<!-- AppModule&#45;&gt;AppComponent  -->
<g id="edge7" class="edge">
<title>AppModule&#45;&gt;AppComponent </title>
<path fill="none" stroke="#000000" stroke-dasharray="1,5" d="M457,-187.1061C457,-187.1061 457,-205.991 457,-205.991"/>
<polygon fill="#000000" stroke="#000000" points="453.5001,-205.9909 457,-215.991 460.5001,-205.991 453.5001,-205.9909"/>
</g>
<!-- AppRoutingModule -->
<g id="node4" class="node">
<title>AppRoutingModule</title>
<polygon fill="#8dd3c7" stroke="#000000" points="589.2744,-122 586.2744,-126 565.2744,-126 562.2744,-122 460.7256,-122 460.7256,-86 589.2744,-86 589.2744,-122"/>
<text text-anchor="middle" x="525" y="-99.8" font-family="Times,serif" font-size="14.00" fill="#000000">AppRoutingModule</text>
</g>
<!-- AppRoutingModule&#45;&gt;AppModule -->
<g id="edge3" class="edge">
<title>AppRoutingModule&#45;&gt;AppModule</title>
<path fill="none" stroke="#000000" d="M479.7206,-122.1061C479.7206,-122.1061 479.7206,-140.991 479.7206,-140.991"/>
<polygon fill="#000000" stroke="#000000" points="476.2206,-140.9909 479.7206,-150.991 483.2206,-140.991 476.2206,-140.9909"/>
</g>
<!-- MaterialModule -->
<g id="node5" class="node">
<title>MaterialModule</title>
<polygon fill="#8dd3c7" stroke="#000000" points="442.4706,-122 439.4706,-126 418.4706,-126 415.4706,-122 335.5294,-122 335.5294,-86 442.4706,-86 442.4706,-122"/>
<text text-anchor="middle" x="389" y="-99.8" font-family="Times,serif" font-size="14.00" fill="#000000">MaterialModule</text>
</g>
<!-- MaterialModule&#45;&gt;AppModule -->
<g id="edge4" class="edge">
<title>MaterialModule&#45;&gt;AppModule</title>
<path fill="none" stroke="#000000" d="M428.8286,-122.1061C428.8286,-122.1061 428.8286,-140.991 428.8286,-140.991"/>
<polygon fill="#000000" stroke="#000000" points="425.3286,-140.9909 428.8286,-150.991 432.3286,-140.991 425.3286,-140.9909"/>
</g>
<!-- RecaptchaLoaderModule -->
<g id="node6" class="node">
<title>RecaptchaLoaderModule</title>
<polygon fill="#8dd3c7" stroke="#000000" points="317.9932,-122 314.9932,-126 293.9932,-126 290.9932,-122 160.0068,-122 160.0068,-86 317.9932,-86 317.9932,-122"/>
<text text-anchor="middle" x="239" y="-99.8" font-family="Times,serif" font-size="14.00" fill="#000000">RecaptchaLoaderModule</text>
</g>
<!-- RecaptchaLoaderModule&#45;&gt;AppModule -->
<g id="edge5" class="edge">
<title>RecaptchaLoaderModule&#45;&gt;AppModule</title>
<path fill="none" stroke="#000000" d="M239,-122.0225C239,-139.3734 239,-163 239,-163 239,-163 405.2253,-163 405.2253,-163"/>
<polygon fill="#000000" stroke="#000000" points="405.2254,-166.5001 415.2253,-163 405.2253,-159.5001 405.2254,-166.5001"/>
</g>
<!-- RecaptchaModule -->
<g id="node7" class="node">
<title>RecaptchaModule</title>
<polygon fill="#8dd3c7" stroke="#000000" points="141.8501,-122 138.8501,-126 117.8501,-126 114.8501,-122 24.1499,-122 24.1499,-86 141.8501,-86 141.8501,-122"/>
<text text-anchor="middle" x="83" y="-99.8" font-family="Times,serif" font-size="14.00" fill="#000000">RecaptchaModule</text>
</g>
<!-- RecaptchaModule&#45;&gt;AppModule -->
<g id="edge6" class="edge">
<title>RecaptchaModule&#45;&gt;AppModule</title>
<path fill="none" stroke="#000000" d="M83,-122.2843C83,-143.3211 83,-175 83,-175 83,-175 405.1861,-175 405.1861,-175"/>
<polygon fill="#000000" stroke="#000000" points="405.1861,-178.5001 415.1861,-175 405.1861,-171.5001 405.1861,-178.5001"/>
</g>
</g>
</svg>
